<?xml version="1.0" encoding="utf-8"?>
<?xml-stylesheet type="text/xsl" href="rss1.xsl"?>
<rss version="2.0" xmlns:atom="http://www.w3.org/2005/Atom" xmlns:content="http://purl.org/rss/1.0/modules/content/" xmlns:dc="http://purl.org/dc/elements/1.1/" xmlns:media="http://search.yahoo.com/mrss/">
<channel>
 <title>Getty</title>
 <link>http://www.gettyimg.com/</link>
 <atom:link href="http://www.gettyimg.com/" rel="self" type="application/rss+xml" />

 
                <item>
                <title><![CDATA[【Singles (lossless)】FLAC - Giolì &amp; Assia - The Point Of Living (Omnya Remix). FLAC, 2024. 44,1/16]]></title>
                <link><![CDATA[https://sharemania.us/threads/giol%C3%AC-assia-the-point-of-living-omnya-remix-flac-2024-44-1-16.237925/]]></link>
                <description><![CDATA[<article>
<blockquote class="messageText SelectQuoteContainer ugc baseHtml">
<span data-s9e-mediaembed="youtube" style="display:inline-block;width:100%;max-width:640px"><span style="display:block;overflow:hidden;position:relative;padding-bottom:56.25%"><iframe allowfullscreen="" loading="lazy" scrolling="no" style="background:url(https://i.ytimg.com/vi/c-Gs9Caa4t4/hqdefault.jpg) 50% 50% / cover;border:0;height:100%;left:0;position:absolute;width:100%" src="https://www.youtube.com/embed/c-Gs9Caa4t4"></iframe></span></span><br>
<br>
Download <iframe data-s9e-mediaembed="telegram" allowfullscreen="" loading="lazy" onload="var c=new MessageChannel;c.port1.onmessage=function(e){style.height=e.data+'px'};contentWindow.postMessage('s9e:init','https://s9e.github.io',[c.port2])" scrolling="no" src="https://s9e.github.io/iframe/2/telegram.min.html#losslessdownload/2139" style="border: 0px; height: 541px; max-width: 500px; width: 100%;"></iframe>
<div class="messageTextEndMarker">&nbsp;</div>
</blockquote>
</article>]]></description>
                <author><![CDATA[igorsm]]></author>
                </item>

                
                <item>
                <title><![CDATA[【Requests】[REQ AUD] - Celine Dion - Faith (Original 3 Remix) (high quality lossy or lossless)]]></title>
                <link><![CDATA[https://sharemania.us/threads/celine-dion-faith-original-3-remix-high-quality-lossy-or-lossless.237924/]]></link>
                <description><![CDATA[<article>
<blockquote class="messageText SelectQuoteContainer ugc baseHtml">
Many thanks!!!
<div class="messageTextEndMarker">&nbsp;</div>
</blockquote>
</article>]]></description>
                <author><![CDATA[ilearnedfromthebest]]></author>
                </item>

                
                <item>
                <title><![CDATA[【Music Videos】Davido - UNAVAILABLE (feat. Musa Keys) [AM 4K HEVC 10-bit | PCM | DD+ Dolby Atmos]]]></title>
                <link><![CDATA[https://sharemania.us/threads/davido-unavailable-feat-musa-keys-am-4k-hevc-10-bit-pcm-dd-dolby-atmos.237926/]]></link>
                <description><![CDATA[<article>
<blockquote class="messageText SelectQuoteContainer ugc baseHtml">
<b><img src="https://images2.imgbox.com/ae/30/blEiHSFX_o.jpg" class="bbCodeImage LbImage" alt="[​IMG]" data-url="https://images2.imgbox.com/ae/30/blEiHSFX_o.jpg" style=""> <br>
<br>
Genre: <span style="color: #0059b3">Funk / Soul, Pop</span> <br>
Style: <span style="color: #0059b3">Afrobeat</span> <br>
Year: <span style="color: #0059b3">2023</span><br>
Video Source: <span style="color: #0059b3">Apple Music, merci SonMaxime</span><br>
Audio Source: <span style="color: #0059b3">Qobuz &amp; Apple Music, merci moi &amp; SonMaxime</span></b><br>
<br>
"<b>Unavailable</b>" is a song by Nigerian singer-songwriter and record producer Davido featuring South African producer Musa Keys and was produced by Ragee and co-produced by Magicsticks. It's the fifth track on Davido's fourth studio album, Timeless, released on March 31, 2023, through his own label, Davido Music Worldwide Limited. On the same day, Davido launched a dance challenge on TikTok, which has received over 600,000 posts.<br>
"Unavailable" peaked at number 1 on the UK Afrobeats Singles Chart for five weeks and reached number 3 on the <i>Billboard</i> U.S. Afrobeats Songs chart. The song was nominated at the 66th Annual Grammy Awards for Best African Music Performance.<br>
<br>
Davido rose to fame in Nigeria in 2011 after releasing "Dami Duro," the second single from his debut studio album, Omo Baba Olowo. It won Hottest Single of the Year at the 2012 Nigeria Entertainment Awards and its video won Best Video by a New Artiste at the 2012 Nigeria Music Video Awards.<br>
Davido's unique blend of Afrobeats, hip-hop, and pop music has earned him a large fan base in Africa and around the world. He has also won numerous awards, including the BET Award for Best International Act in 2018, when he became the first African artist to receive his award on the main stage.<br>
<br>
This club tune finds Davido unavailable for a relationship because he is focused on his career and wants a stress-free life. The lyrics are in the Nigerian Pidgin language, which is a mix of English, Yoruba, and Hausa. Nigerian Pidgin English is the most common language spoken in Davido's home city of Lagos.<br>
The song features complementary vocals by South African singer Musa Keys. During his verse, Musa Keys boasts about women being jealous of him because his career is thriving. The phrase "big propeller" is a metaphor for success, and Musa Keys is moving quickly and efficiently towards his goals. The phrase "'cause I dey Banana" is a Nigerian Pidgin phrase that means "because I am in my prime." Musa Keys is saying that he is at the peak of his success, and is attracting the attention of many women.<br>
<br>
The official music video for "Unavailable" was directed by Dammy Twitch and was shot in South Africa. It was released on Davido's YouTube channel on April 11, 2023 and has gathered over 92 million views in 10 months (Februari 2024).<br>
<br>
<b>Release Info</b><br>
I've removed the intro from the video track (4K HEVC 10-bit) to match it with the album version.<br>
The PCM tracks are lossless (Qobuz CD quality 16-bit 44.1 kHz), synced with Adobe Audition.<br>
The Atmos track is lossy and is synced by muxing (modified delay, no quality loss).<br>
The timed lyrics are synced and edited. Enable the subtitles to see the lyrics.<br>
<br>
<b>This release has 4 audio tracks:</b><br>
Track #1: Album Version (PCM 2.0)<br>
Track #2: Instrumental (PCM 2.0)<br>
Track #3: Dolby Atmos Mix (Dolby Digital +)<br>
Track #4: Original Track (AAC 2.0)<br>
<br>
<div class="ToggleTriggerAnchor bbCodeSpoilerContainer">
<button type="button" class="button bbCodeSpoilerButton ToggleTrigger Tooltip JsOnly" data-target="> .SpoilerTarget"><span>Spoiler: <span class="SpoilerTitle">Media Info</span></span></button>
<div class="SpoilerTarget bbCodeSpoilerText">
<div class="bbCodeBlock bbCodeCode">
<div class="type">Code:</div>
<pre>General
Unique ID                      : 255482824170391326021804506618173529053 (0xC03433BF1879C2F5837B405CEDA31BDD)
Complete name                  : Davido - UNAVAILABLE (feat. Musa Keys).mkv
Format                         : Matroska
Format version                 : Version 4 / Version 2
File size                      : 504 MiB
Duration                       : 2 min 49 s
Overall bit rate               : 24.9 Mb/s
Frame rate                     : 25.000 FPS
Encoded date                   : 2024-02-17 13:48:08 UTC
Writing application            : mkvmerge v82.0 ('I'm The President') 64-bit
Writing library                : libebml v1.4.5 + libmatroska v1.7.1
Cover                          : Yes
Attachments                    : cover.jpg

Video
ID                             : 1
Format                         : HEVC
Format/Info                    : High Efficiency Video Coding
Format profile                 : Main 10@L5@High
Codec ID                       : V_MPEGH/ISO/HEVC
Duration                       : 2 min 49 s
Bit rate                       : 21.0 Mb/s
Width                          : 3 840 pixels
Height                         : 2 160 pixels
Display aspect ratio           : 16:9
Frame rate mode                : Constant
Frame rate                     : 25.000 FPS
Color space                    : YUV
Chroma subsampling             : 4:2:0
Bit depth                      : 10 bits
Bits/(Pixel*Frame)             : 0.101
Stream size                    : 426 MiB (84%)
Default                        : Yes
Forced                         : No
Color range                    : Limited
Color primaries                : BT.709
Transfer characteristics       : BT.709
Matrix coefficients            : BT.709

Audio #1
ID                             : 2
Format                         : PCM
Format settings                : Little / Signed
Codec ID                       : A_PCM/INT/LIT
Duration                       : 2 min 49 s
Bit rate mode                  : Constant
Bit rate                       : 1 411.2 kb/s
Channel(s)                     : 2 channels
Sampling rate                  : 44.1 kHz
Frame rate                     : 25.005 FPS (1764 SPF)
Bit depth                      : 16 bits
Stream size                    : 28.6 MiB (6%)
Title                          : Album Version
Language                       : English
Default                        : Yes
Forced                         : No

Audio #2
ID                             : 3
Format                         : PCM
Format settings                : Little / Signed
Codec ID                       : A_PCM/INT/LIT
Duration                       : 2 min 49 s
Bit rate mode                  : Constant
Bit rate                       : 1 411.2 kb/s
Channel(s)                     : 2 channels
Sampling rate                  : 44.1 kHz
Frame rate                     : 25.005 FPS (1764 SPF)
Bit depth                      : 16 bits
Stream size                    : 28.6 MiB (6%)
Title                          : Instrumental
Language                       : English
Default                        : No
Forced                         : No

Audio #3
ID                             : 4
Format                         : E-AC-3 JOC
Format/Info                    : Enhanced AC-3 with Joint Object Coding
Commercial name                : Dolby Digital Plus with Dolby Atmos
Codec ID                       : A_EAC3
Duration                       : 2 min 49 s
Bit rate mode                  : Constant
Bit rate                       : 768 kb/s
Channel(s)                     : 6 channels
Channel layout                 : L R C LFE Ls Rs
Sampling rate                  : 48.0 kHz
Frame rate                     : 31.250 FPS (1536 SPF)
Compression mode               : Lossy
Delay relative to video        : 17 ms
Stream size                    : 15.6 MiB (3%)
Title                          : Dolby Atmos
Language                       : English
Service kind                   : Complete Main
Default                        : No
Forced                         : No
Complexity index               : 16
Number of dynamic objects      : 15
Bed channel count              : 1 channel
Bed channel configuration      : LFE

Audio #4
ID                             : 5
Format                         : AAC LC
Format/Info                    : Advanced Audio Codec Low Complexity
Codec ID                       : A_AAC-2
Duration                       : 2 min 49 s
Bit rate                       : 278 kb/s
Channel(s)                     : 2 channels
Channel layout                 : L R
Sampling rate                  : 48.0 kHz
Frame rate                     : 46.875 FPS (1024 SPF)
Compression mode               : Lossy
Delay relative to video        : 16 ms
Stream size                    : 5.63 MiB (1%)
Title                          : Original Track
Language                       : English
Default                        : No
Forced                         : No

Text
ID                             : 6
Format                         : UTF-8
Codec ID                       : S_TEXT/UTF8
Codec ID/Info                  : UTF-8 Plain Text
Duration                       : 2 min 15 s
Bit rate                       : 104 b/s
Frame rate                     : 0.436 FPS
Count of elements              : 59
Stream size                    : 1.73 KiB (0%)
Title                          : Lyrics
Language                       : English
Default                        : No
Forced                         : No
</pre>
</div></div>
</div><br>
<b>Note to the peeps @ RuTracker: Give credit if you post the work of someone else!</b><br>
- Hurby4 aka ADHDerby<br>
<br>
<div class="bbCodeBlock bbCodeVfcHH HiddenContent">
<div class="attribution type">Hidden Content:</div>
<blockquote>You must reply before you can see the hidden data contained here.</blockquote>
</div>
<div class="messageTextEndMarker">&nbsp;</div>
</blockquote>
</article>]]></description>
                <author><![CDATA[ADHDerby]]></author>
                </item>

                </channel></rss>